<?xml version="1.0" encoding="utf-8"?>
<!-- Generator: Adobe Illustrator 19.0.0, SVG Export Plug-In . SVG Version: 6.00 Build 0)  -->
<svg version="1.1" id="Layer_1" xmlns="http://www.w3.org/2000/svg" xmlns:xlink="http://www.w3.org/1999/xlink" x="0px" y="0px"
	 viewBox="0 0 500 500" style="enable-background:new 0 0 500 500;" xml:space="preserve">
<style type="text/css">
	.st0{fill:#272727;}
	.st1{fill:#74BB11;}
	.st2{fill:#009CD9;}
	.st3{fill:#EB2084;}
</style>
<g id="XMLID_1_">
	<path id="XMLID_4_" class="st0" d="M399.1,206.5c-14.9,0-23.3,2.9-28.2,9.6c-5.1,7-6.1,18.2-6.1,33.8c0,30.8,4.8,43.6,34.2,43.6
		c3.5,0,15.6-0.1,22.7-0.9c2.7-0.5,4-2.6,4-4.4v-3.4c0-2.6-2-4.6-4.6-4.6h-22c-16.6,0-19.6-3.9-20.1-26.2v-7.2
		c0.1-22.8,3.1-26.8,20.1-26.8c15.6,0,18.6,3.6,19.1,23.6h-24.8v13.6h32.6c6.4,0,6.4-4.5,6.4-6v-4.3
		C432,215.5,424.6,206.5,399.1,206.5"/>
	<path id="XMLID_5_" class="st0" d="M356.2,207.7l-0.4-0.1c-3-0.6-11.3-1.1-15.5-1.1c-14.6,0-22.3,6.1-22.3,17.6v64.2
		c0,2.6,1.9,4.5,4.5,4.5h5.2c2.7,0,4.5-1.8,4.5-4.5v-63c0-2.8,0.7-5.4,9.4-5.4l12.9,0c1.3,0.2,2.5-0.2,3.4-1c1-0.9,1.6-2.1,1.6-3.5
		v-3.2C359.6,210,358.3,208.4,356.2,207.7"/>
	<path id="XMLID_6_" class="st0" d="M294,207.5h-5.2c-2.7,0-4.5,1.8-4.5,4.5v68.1h-21.5c-13.3,0-18.7-0.8-18.7-22.1V212
		c0-2.6-1.9-4.5-4.5-4.5h-5c-2.7,0-4.6,1.9-4.6,4.5V258c0,30.2,10.9,35.5,33.9,35.5c8.3,0,19.6,0,30.4-1.5l0.2-0.1
		c2.7-0.7,4-2.2,4-4.5V212C298.5,209.3,296.7,207.5,294,207.5"/>
	<path id="XMLID_7_" class="st1" d="M213.9,209.6L213.9,209.6c-0.7-1.4-2.1-2.3-3.8-2.3h-6.7c-1.9,0-3.4,0.8-4.1,2.2l-9.9,14.4
		l8.6,11.8l15.1-21.6C214.8,212.1,214.2,210.3,213.9,209.6"/>
	<path id="XMLID_8_" class="st2" d="M161.9,209.4L161.9,209.4c-1.5-2-3.5-2-4.2-2h-6.5c-1.7,0-3,0.8-3.7,2.1c-0.7,1.4-0.6,3,0.4,4.5
		l24.1,33.4l-27.7,38.7c-1,1.5-1.1,3.1-0.4,4.4c0.7,1.3,2.1,2.1,3.7,2.1h6.7c1.7,0,3.2-0.9,4-2.3l31-42.8L161.9,209.4z"/>
	<path id="XMLID_9_" class="st3" d="M217.2,286.4l-19.4-26.6l-8.5,11.7l15.3,20.4l0.4,0.2c0.7,0.3,1.3,0.4,1.9,0.4h6.5
		c1.6,0,2.9-0.7,3.7-1.9C218,289.5,218,287.9,217.2,286.4"/>
	<path id="XMLID_13_" class="st0" d="M118.7,256.5V279c-6.6,1-16.6,1.2-20.1,1.2c-15.1,0-16.8-4.1-16.8-12.9
		c0-8.2,3.1-10.9,12.7-10.9H118.7z M97.9,206.5c-4.7,0-11.1,0.1-19,1.1l-0.4,0.1c-2.3,0.7-3.5,2.2-3.5,4.5v3.2
		c0,2.8,1.7,4.5,4.5,4.5h18.3c14.8,0,20.8,4,20.8,13.8v9.5H94.5c-18.9,0-27,7.2-27,24.1c0,18.8,8.4,26.2,29.8,26.2
		c8.7,0,24.7-0.7,30.6-2.5c5-1.4,5-5.2,5-6.4v-51.8C132.9,215.1,121.4,206.5,97.9,206.5z"/>
</g>
</svg>
