<svg id="Layer_5" enable-background="new 0 0 64 64" height="512" viewBox="0 0 64 64" width="512" xmlns="http://www.w3.org/2000/svg"><g fill="#f0bc5e"><path d="m36.959 46.985-4.959 15.015h2l5-5-2-2 3-2 .653-3.7z"/><path d="m27.039 46.98 4.961 15.02h-2l-5-5 2-2-3-2-.653-3.7z"/><path d="m4 1c-1.654 0-3 1.346-3 3s1.346 3 3 3 3-1.346 3-3-1.346-3-3-3z"/><path d="m4 57c-1.654 0-3 1.346-3 3s1.346 3 3 3 3-1.346 3-3-1.346-3-3-3z"/><path d="m60 57c-1.654 0-3 1.346-3 3s1.346 3 3 3 3-1.346 3-3-1.346-3-3-3z"/><path d="m60 7c1.654 0 3-1.346 3-3s-1.346-3-3-3-3 1.346-3 3 1.346 3 3 3z"/><path d="m60 38c-1.654 0-3 1.346-3 3s1.346 3 3 3 3-1.346 3-3-1.346-3-3-3z"/><path d="m4 38c-1.654 0-3 1.346-3 3s1.346 3 3 3 3-1.346 3-3-1.346-3-3-3z"/></g><path d="m36.354 45.702c2.191-1.428 3.646-3.897 3.646-6.702 0-4.411-3.589-8-8-8s-8 3.589-8 8c0 2.805 1.455 5.274 3.646 6.702-5.593 1.836-9.646 7.099-9.646 13.298v4h28v-4c0-6.199-4.053-11.462-9.646-13.298zm-10.354-6.702c0-3.309 2.691-6 6-6s6 2.691 6 6-2.691 6-6 6-6-2.691-6-6zm9.706 8.592-3.706 11.219-3.705-11.219c1.168-.38 2.412-.592 3.705-.592 1.294 0 2.537.212 3.706.592zm-15.706 11.408c0-4.613 2.62-8.619 6.446-10.627l4.171 12.627h-10.617zm24 2h-10.616l4.171-12.627c3.825 2.008 6.445 6.015 6.445 10.627z"/><path d="m27 29h10v-12h4.869l-9.869-14.803-9.869 14.803h4.869zm-1.131-14 6.131-9.197 6.131 9.197h-3.131v12h-6v-12z"/><path d="m18.07 37.428 7.358-7.358-8.845-8.506 3.389-3.389-17.247-3.45 3.449 17.247 3.389-3.389zm-12.795-20.153 10.641 2.128-2.188 2.189 8.845 8.506-4.474 4.474-8.506-8.845-2.189 2.188z"/><path d="m44.028 18.174 3.389 3.389-8.845 8.506 7.358 7.358 8.506-8.845 3.389 3.389 3.449-17.247zm12.569 9.742-2.189-2.188-8.506 8.845-4.474-4.474 8.845-8.506-2.188-2.189 10.641-2.128z"/><path d="m6.707 6.707h2v2h-2z" transform="matrix(.707 -.707 .707 .707 -3.192 7.707)"/><path d="m9.536 9.536h2v2h-2z" transform="matrix(.707 -.707 .707 .707 -4.364 10.536)"/><path d="m12.328 12.379h2v1.9h-2z" transform="matrix(.707 -.707 .707 .707 -5.521 13.328)"/><path d="m6.707 55.293h2v2h-2z" transform="matrix(.707 -.707 .707 .707 -37.548 21.938)"/><path d="m9.536 52.464h2v2h-2z" transform="matrix(.707 -.707 .707 .707 -34.719 23.109)"/><path d="m12.379 49.672h1.9v2h-1.9z" transform="matrix(.707 -.707 .707 .707 -31.927 24.266)"/><path d="m55.293 55.293h2v2h-2z" transform="matrix(.707 -.707 .707 .707 -23.317 56.293)"/><path d="m49.672 49.722h2v1.9h-2z" transform="matrix(.707 -.707 .707 .707 -20.989 50.672)"/><path d="m52.464 52.464h2v2h-2z" transform="matrix(.707 -.707 .707 .707 -22.146 53.464)"/><path d="m49.722 12.328h1.9v2h-1.9z" transform="matrix(.707 -.707 .707 .707 5.417 39.734)"/><path d="m52.464 9.536h2v2h-2z" transform="matrix(.707 -.707 .707 .707 8.21 40.891)"/><path d="m55.293 6.707h2v2h-2z" transform="matrix(.707 -.707 .707 .707 11.038 42.063)"/><path d="m45 40h2v2h-2z"/><path d="m49 40h2v2h-2z"/><path d="m53 40h2v2h-2z"/><path d="m17 40h2v2h-2z"/><path d="m9 40h2v2h-2z"/><path d="m13 40h2v2h-2z"/></svg>